<?xml version="1.0" encoding="iso-8859-1"?>
<!-- Uploaded to: SVG Repo, www.svgrepo.com, Generator: SVG Repo Mixer Tools -->
<svg height="800px" width="800px" version="1.1" id="Layer_1" xmlns="http://www.w3.org/2000/svg" xmlns:xlink="http://www.w3.org/1999/xlink" 
	 viewBox="0 0 512.003 512.003" xml:space="preserve">
<path style="fill:#3689C9;" d="M160.001,352.003h192c44.184,0,80,35.816,80,80v64c0,8.84-7.16,16-16,16h-320c-8.84,0-16-7.16-16-16
	v-64C80.001,387.819,115.817,352.003,160.001,352.003z"/>
<path style="fill:#EFC9AE;" d="M302.881,304.003h-93.76c-10.704,0.008-20.704-5.336-26.64-14.24l-33.12-49.76
	c-3.488-5.24-5.352-11.384-5.36-17.68v-94.32c0-53.016,42.984-96,96-96h32c53.016,0,96,42.984,96,96v94.32
	c-0.008,6.296-1.872,12.44-5.36,17.68l-33.12,49.68C323.601,298.619,313.601,303.995,302.881,304.003z"/>
<ellipse style="fill:#E2B698;" cx="368.001" cy="176.003" rx="16" ry="24"/>
<ellipse style="fill:#EFC9AE;" cx="144.001" cy="176.003" rx="16" ry="24"/>
<g>
	<path style="fill:#E2B698;" d="M344.001,120.003c0,0-122.32,8-168,8c-4.48,0-8-16-8-16h176V120.003z"/>
	<path style="fill:#E2B698;" d="M352.001,160.003v61.76c-0.088,6.552-2.176,12.92-6,18.24l-29.2,41.28
		c-2.952,4.152-7.704,6.648-12.8,6.72h-32c-8.84,0-16,7.16-16,16h46.88c10.704,0.008,20.704-5.336,26.64-14.24l33.12-49.76
		c3.488-5.24,5.352-11.384,5.36-17.68v-62.32H352.001z"/>
</g>
<path style="fill:#C97629;" d="M160.001,20.723v-4.72c-0.008-8.84-7.176-15.992-16.016-15.984c-2.136,0-4.256,0.432-6.224,1.264
	c-20.768,10.312-33.856,31.536-33.76,54.72c-0.008,24.768,16.264,46.6,40,53.68v58.32l0,0c17.672,0,32-14.328,32-32v-16
	c0-4.416,3.584-8,8-8h144c4.416,0,8,3.584,8,8v16c0,17.672,14.328,32,32,32l0,0v-72c0-35.344-28.656-64-64-64h-136
	C163.121,30.443,159.865,25.843,160.001,20.723z"/>
<path style="fill:#DA8C36;" d="M112.001,68.723c-0.104-23.184,12.992-44.408,33.76-54.72c4.632-1.936,9.904-1.576,14.24,0.96
	c-0.576-8.816-8.184-15.504-17.008-14.928c-1.8,0.12-3.576,0.536-5.232,1.248c-20.768,10.312-33.856,31.536-33.76,54.72
	c0.024,13.128,4.696,25.832,13.2,35.84C113.825,84.603,112.049,76.715,112.001,68.723z"/>
<path style="fill:#B06328;" d="M304.001,32.003h-16c35.344,0,64,28.656,64,64v55.2c-0.176,9.04,6.96,16.536,16,16.8l0,0v-72
	C368.001,60.659,339.345,32.003,304.001,32.003z"/>
<path style="fill:#C97629;" d="M144.001,109.683L144.001,109.683v58.32c17.672,0,32-14.328,32-32v-16c0-4.416,3.584-8,8-8h-24
	C154.577,112.123,149.169,111.339,144.001,109.683z"/>
<path style="fill:#B06328;" d="M144.001,109.683L144.001,109.683c0,10.12,8.2,18.32,18.32,18.32l0,0h13.68v-8c0-4.416,3.584-8,8-8
	h-24C154.577,112.123,149.169,111.339,144.001,109.683z"/>
<g>
	<circle style="fill:#123247;" cx="216.001" cy="176.003" r="16"/>
	<circle style="fill:#123247;" cx="296.001" cy="176.003" r="16"/>
</g>
<g>
	<circle style="fill:#F9AA8F;" cx="320.001" cy="208.003" r="8"/>
	<circle style="fill:#F9AA8F;" cx="192.001" cy="208.003" r="8"/>
</g>
<g>
	<circle style="fill:#E2E5E7;" cx="292.001" cy="172.003" r="4"/>
	<circle style="fill:#E2E5E7;" cx="212.001" cy="172.003" r="4"/>
</g>
<path style="fill:#123247;" d="M294.801,226.803c-1.248-1.76-3.28-2.808-5.44-2.8h-66.72c-3.664-0.216-6.808,2.576-7.024,6.232
	c-0.056,0.896,0.08,1.8,0.384,2.648c5.296,17.864,21.376,30.384,40,31.12c18.624-0.736,34.704-13.256,40-31.12
	C296.633,230.787,296.185,228.507,294.801,226.803z"/>
<path style="fill:#F04B4D;" d="M276.481,248.003c-11.68-10.312-29.2-10.312-40.88,0
	C247.009,259.011,265.073,259.011,276.481,248.003z"/>
<path style="fill:#1470B8;" d="M256.001,388.883c7.72-0.008,15.32-1.872,22.16-5.44l49.84-23.44c2.208-0.488,3.608-2.672,3.12-4.88
	s-2.672-3.608-4.88-3.12h-134.24c-2.208-0.008-4.008,1.768-4.024,3.976c-0.008,1.48,0.8,2.84,2.104,3.544l44,24
	C240.857,387.027,248.377,388.867,256.001,388.883z"/>
<path style="fill:#EFC9AE;" d="M304.001,352.003l-33.2,17.28c-9.256,4.808-20.264,4.808-29.52,0l-33.28-17.28v-48h96V352.003z"/>
<path style="fill:#E2B698;" d="M208.001,304.003c0,8.84,7.16,16,16,16h48c4.416,0,8,3.584,8,8v36.48l24-12.48v-48H208.001z"/>
<path style="fill:#1470B8;" d="M400.001,464.003v8c0,4.416-3.584,8-8,8h-264c-17.672,0-32,14.328-32,32h320c8.84,0,16-7.16,16-16
	v-64C414.329,432.003,400.001,446.331,400.001,464.003z"/>
<path style="fill:#E2B698;" d="M248.001,200.003h16c4.416,0,8,3.584,8,8l0,0c0,4.416-3.584,8-8,8h-16c-4.416,0-8-3.584-8-8l0,0
	C240.001,203.587,243.585,200.003,248.001,200.003z"/>
</svg>