<?xml version="1.0" encoding="iso-8859-1"?>
<!-- Uploaded to: SVG Repo, www.svgrepo.com, Generator: SVG Repo Mixer Tools -->
<svg version="1.1" id="Layer_1" xmlns="http://www.w3.org/2000/svg" xmlns:xlink="http://www.w3.org/1999/xlink" 
	 viewBox="0 0 511.996 511.996" xml:space="preserve">
<rect x="167.979" y="352.027" style="fill:#C61C31;" width="175.975" height="15.998"/>
<path style="fill:#DE333F;" d="M351.985,352.019h-8.399c0.248,1.536,0.384,3.088,0.4,4.639c0,28.396-39.354,51.353-87.988,51.353
	s-87.988-22.957-87.988-51.353c0.016-1.552,0.152-3.104,0.4-4.639h-8.399c-44.178,0-79.989,35.811-79.989,79.989v63.991
	c0,8.839,7.159,15.998,15.998,15.998h319.955c8.839,0,15.998-7.159,15.998-15.998v-63.991
	C431.973,387.83,396.162,352.019,351.985,352.019z"/>
<g>
	<path style="fill:#EFC9AE;" d="M255.998,408.011c41.754,0,76.629-16.958,85.668-39.994c-1.84,0-3.759,0-5.679,0h-15.998
		c-8.839,0-15.998-7.159-15.998-15.998v-55.992h-95.987v55.992c0,8.839-7.159,15.998-15.998,15.998h-15.998c-1.92,0-3.759,0-5.679,0
		C179.369,391.053,214.244,408.011,255.998,408.011z"/>
	<path style="fill:#EFC9AE;" d="M303.991,296.027h-95.987c-14.518-0.016-27.612-8.751-33.195-22.157l-28.316-67.91
		c-1.632-3.903-2.472-8.087-2.48-12.318V128.85c0-61.847,50.137-111.984,111.984-111.984l0,0
		c61.847,0,111.984,50.137,111.984,111.984v64.791c-0.008,4.231-0.848,8.415-2.48,12.318l-28.316,67.91
		C331.604,287.268,318.517,296.011,303.991,296.027z"/>
</g>
<g>
	<circle style="fill:#123247;" cx="216.212" cy="168.053" r="15.998"/>
	<circle style="fill:#123247;" cx="296.201" cy="168.053" r="15.998"/>
</g>
<g>
	<circle style="fill:#E2E5E7;" cx="292.233" cy="164.045" r="3.999"/>
	<circle style="fill:#E2E5E7;" cx="212.244" cy="164.045" r="3.999"/>
</g>
<path style="fill:#123247;" d="M295.033,218.838c-1.248-1.76-3.28-2.808-5.439-2.8h-66.631c-3.663,0.008-6.631,2.984-6.631,6.647
	c0,0.76,0.136,1.512,0.392,2.232c5.207,17.622,20.925,30.076,39.274,31.116c18.621-0.736,34.699-13.254,39.994-31.116
	C296.688,222.853,296.328,220.581,295.033,218.838z"/>
<path style="fill:#F04B4D;" d="M276.715,240.035c-11.678-10.311-29.196-10.311-40.874,0
	C247.247,251.033,265.317,251.033,276.715,240.035z"/>
<path style="fill:#E2B698;" d="M208.005,296.027c0,8.839,7.159,15.998,15.998,15.998h47.993c4.415,0,7.999,3.583,7.999,7.999v17.438
	c-0.016,9.055,7.311,16.414,16.374,16.422c2.656,0.008,5.271-0.64,7.623-1.864l0,0v-39.994v-15.998H208.005z"/>
<path style="fill:#C61C31;" d="M399.978,464.003v7.999c0,4.415-3.583,7.999-7.999,7.999H128.016
	c-17.67,0-31.996,14.326-31.996,31.996h319.955c8.839,0,15.998-7.159,15.998-15.998v-63.991
	C414.304,432.008,399.978,446.326,399.978,464.003z"/>
<g>
	<circle style="fill:#F9AA8F;" cx="320.197" cy="200.048" r="7.999"/>
	<circle style="fill:#F9AA8F;" cx="192.215" cy="200.048" r="7.999"/>
</g>
<g>
	<path style="fill:#E2B698;" d="M248.239,192.041h15.998c4.415,0,7.999,3.583,7.999,7.999l0,0c0,4.415-3.583,7.999-7.999,7.999
		h-15.998c-4.415,0-7.999-3.583-7.999-7.999l0,0C240.24,195.617,243.824,192.041,248.239,192.041z"/>
	<path style="fill:#E2B698;" d="M367.982,120.051c0-2.4-0.48-4.719-0.8-7.039l0,0c-8.303-58.352-60.407-100.282-119.183-95.907
		c-59.336,5.263-104.633,55.296-103.985,114.864v6.159c0-1.336,0-2.64,0-3.919c0.464-12.23,10.75-21.765,22.981-21.301
		c0.504,0.016,1,0.056,1.496,0.104c36.315,3.679,75.429,6.079,95.427-6.879v23.997c24.893,1.008,49.729-3.136,72.95-12.158l0,0
		c5.727-2.208,12.166,0.64,14.374,6.375c0.512,1.336,0.768,2.76,0.744,4.183v69.99c0,1.016-0.184,2.016-0.56,2.96l-27.436,68.47
		c-2.384,5.983-8.119,9.959-14.558,10.079h-37.435c-8.839,0-15.998,7.159-15.998,15.998h47.993
		c14.518-0.016,27.612-8.751,33.195-22.157l28.316-67.91c1.632-3.903,2.472-8.087,2.48-12.318V128.85
		C367.982,125.811,367.982,122.851,367.982,120.051z"/>
</g>
<path style="fill:#F19920;" d="M251.199,0.068C182.233,2.276,127.592,59.052,128.016,128.05v230.928
	c10.071-4.503,20.965-6.871,31.995-6.959h47.993v-55.992l0,0c-14.518-0.016-27.612-8.751-33.195-22.157l-28.316-67.91
	c-1.632-3.903-2.472-8.087-2.48-12.318V128.85c0-1.224,0-2.456,0-3.679c0.584-12.31,11.038-21.821,23.349-21.229
	c0.48,0.024,0.968,0.064,1.448,0.112c36.315,3.679,75.429,6.079,95.427-6.879v23.997c24.892,1.008,49.729-3.136,72.95-12.158
	c11.126-4.871,24.101,0.192,28.972,11.318c1.072,2.44,1.688,5.055,1.824,7.719v65.591c-0.008,4.231-0.848,8.415-2.48,12.318
	l-28.316,67.91c-5.583,13.406-18.677,22.141-33.195,22.157l0,0v55.992h47.993c11.014,0.016,21.909,2.304,31.996,6.719V112.853
	C383.98,40.063,324.149-1.931,251.199,0.068z"/>
<g>
	<path style="fill:#E78825;" d="M263.997,96.055c-0.056-5.919-4.895-10.671-10.814-10.615c-1.112,0.008-2.208,0.192-3.264,0.536
		c-21.437,6.479-52.313,5.599-81.349,2.64c-12.118-1.376-23.053,7.335-24.421,19.453c-0.072,0.656-0.12,1.32-0.136,1.984
		c0,1.336,0,2.696,0,4.079v14.718c0-1.336,0-2.64,0-3.919c0.616-12.222,11.022-21.629,23.245-21.013
		c0.52,0.024,1.032,0.072,1.552,0.136c36.315,3.679,75.429,6.079,95.427-6.879v-1.12L263.997,96.055L263.997,96.055z"/>
	<path style="fill:#E78825;" d="M251.199,0.068c-4.823,0.152-9.631,0.576-14.398,1.28c71.99-1.28,131.182,40.714,131.182,112.144
		c-0.168-12.062-10.087-21.701-22.141-21.525c-2.928,0.04-5.815,0.672-8.495,1.848c-18.717,7.583-38.675,11.654-58.872,11.998
		c-8.087,0.304-14.486,6.943-14.478,15.038c25.012,1.016,49.961-3.184,73.27-12.318c11.086-4.863,24.013,0.176,28.876,11.262
		c1.144,2.608,1.768,5.407,1.84,8.255v65.591c-0.008,4.231-0.848,8.415-2.48,12.318l-28.316,67.91
		c-5.583,13.406-18.677,22.141-33.195,22.157v55.992h47.993c5.375,0.016,10.734,0.584,15.998,1.68
		c2.704,0.56,5.367,1.248,7.999,2.08l0,0c2.72,0.84,5.391,1.832,7.999,2.96V136.849v-23.997
		C383.98,40.063,324.149-1.931,251.199,0.068z"/>
</g>
</svg>